<svg xmlns="http://www.w3.org/2000/svg" xmlns:xlink="http://www.w3.org/1999/xlink" width="500" zoomAndPan="magnify" viewBox="0 0 375 374.999991" height="500" preserveAspectRatio="xMidYMid meet" version="1.0"><defs><clipPath id="da41a6df3f"><path d="M 24 28 L 351 28 L 351 355 L 24 355 Z M 24 28 " clip-rule="nonzero"/></clipPath><clipPath id="58881ce794"><path d="M 4.167969 191.667969 L 187.5 8.332031 L 370.832031 191.667969 L 187.5 375 Z M 4.167969 191.667969 " clip-rule="nonzero"/></clipPath><clipPath id="bb37a52156"><path d="M 4.167969 191.667969 L 187.5 8.332031 L 370.832031 191.667969 L 187.5 375 Z M 4.167969 191.667969 " clip-rule="nonzero"/></clipPath><clipPath id="62cb8227b8"><path d="M 24 20 L 351 20 L 351 347 L 24 347 Z M 24 20 " clip-rule="nonzero"/></clipPath><clipPath id="db729cf592"><path d="M 4.167969 183.332031 L 187.5 0 L 370.832031 183.332031 L 187.5 366.667969 Z M 4.167969 183.332031 " clip-rule="nonzero"/></clipPath><clipPath id="ed16f89c6d"><path d="M 4.167969 183.332031 L 187.5 0 L 370.832031 183.332031 L 187.5 366.667969 Z M 4.167969 183.332031 " clip-rule="nonzero"/></clipPath><clipPath id="c07df551b7"><path d="M 158.769531 104.75 L 216.230469 104.75 L 216.230469 162.214844 L 158.769531 162.214844 Z M 158.769531 104.75 " clip-rule="nonzero"/></clipPath><clipPath id="e33f3fa6bf"><path d="M 187.5 104.75 C 171.632812 104.75 158.769531 117.613281 158.769531 133.480469 C 158.769531 149.351562 171.632812 162.214844 187.5 162.214844 C 203.367188 162.214844 216.230469 149.351562 216.230469 133.480469 C 216.230469 117.613281 203.367188 104.75 187.5 104.75 Z M 187.5 104.75 " clip-rule="nonzero"/></clipPath><clipPath id="62dc75c307"><path d="M 158.769531 99.996094 L 216.230469 99.996094 L 216.230469 157.460938 L 158.769531 157.460938 Z M 158.769531 99.996094 " clip-rule="nonzero"/></clipPath><clipPath id="662315ce68"><path d="M 187.5 99.996094 C 171.632812 99.996094 158.769531 112.859375 158.769531 128.726562 C 158.769531 144.597656 171.632812 157.460938 187.5 157.460938 C 203.367188 157.460938 216.230469 144.597656 216.230469 128.726562 C 216.230469 112.859375 203.367188 99.996094 187.5 99.996094 Z M 187.5 99.996094 " clip-rule="nonzero"/></clipPath><clipPath id="2e3759bfd9"><path d="M 101.304688 159.085938 L 158.769531 159.085938 L 158.769531 216.550781 L 101.304688 216.550781 Z M 101.304688 159.085938 " clip-rule="nonzero"/></clipPath><clipPath id="f9487141aa"><path d="M 130.035156 159.085938 C 114.167969 159.085938 101.304688 171.949219 101.304688 187.820312 C 101.304688 203.6875 114.167969 216.550781 130.035156 216.550781 C 145.902344 216.550781 158.769531 203.6875 158.769531 187.820312 C 158.769531 171.949219 145.902344 159.085938 130.035156 159.085938 Z M 130.035156 159.085938 " clip-rule="nonzero"/></clipPath><clipPath id="4ad0c3446e"><path d="M 101.304688 154.601562 L 158.769531 154.601562 L 158.769531 212.066406 L 101.304688 212.066406 Z M 101.304688 154.601562 " clip-rule="nonzero"/></clipPath><clipPath id="08f6a34511"><path d="M 130.035156 154.601562 C 114.167969 154.601562 101.304688 167.464844 101.304688 183.332031 C 101.304688 199.203125 114.167969 212.066406 130.035156 212.066406 C 145.902344 212.066406 158.769531 199.203125 158.769531 183.332031 C 158.769531 167.464844 145.902344 154.601562 130.035156 154.601562 Z M 130.035156 154.601562 " clip-rule="nonzero"/></clipPath><clipPath id="1ea1baf1e7"><path d="M 216.230469 156.496094 L 273.695312 156.496094 L 273.695312 213.960938 L 216.230469 213.960938 Z M 216.230469 156.496094 " clip-rule="nonzero"/></clipPath><clipPath id="750f9b64b7"><path d="M 244.964844 156.496094 C 229.097656 156.496094 216.230469 169.359375 216.230469 185.226562 C 216.230469 201.09375 229.097656 213.960938 244.964844 213.960938 C 260.832031 213.960938 273.695312 201.09375 273.695312 185.226562 C 273.695312 169.359375 260.832031 156.496094 244.964844 156.496094 Z M 244.964844 156.496094 " clip-rule="nonzero"/></clipPath><clipPath id="5dbec571c4"><path d="M 216.230469 151.742188 L 273.695312 151.742188 L 273.695312 209.207031 L 216.230469 209.207031 Z M 216.230469 151.742188 " clip-rule="nonzero"/></clipPath><clipPath id="b8452859d5"><path d="M 244.964844 151.742188 C 229.097656 151.742188 216.230469 164.605469 216.230469 180.472656 C 216.230469 196.34375 229.097656 209.207031 244.964844 209.207031 C 260.832031 209.207031 273.695312 196.34375 273.695312 180.472656 C 273.695312 164.605469 260.832031 151.742188 244.964844 151.742188 Z M 244.964844 151.742188 " clip-rule="nonzero"/></clipPath><clipPath id="8eea795322"><path d="M 158.769531 213.960938 L 216.230469 213.960938 L 216.230469 271.425781 L 158.769531 271.425781 Z M 158.769531 213.960938 " clip-rule="nonzero"/></clipPath><clipPath id="7e073be416"><path d="M 187.5 213.960938 C 171.632812 213.960938 158.769531 226.824219 158.769531 242.691406 C 158.769531 258.558594 171.632812 271.425781 187.5 271.425781 C 203.367188 271.425781 216.230469 258.558594 216.230469 242.691406 C 216.230469 226.824219 203.367188 213.960938 187.5 213.960938 Z M 187.5 213.960938 " clip-rule="nonzero"/></clipPath><clipPath id="03212891c1"><path d="M 158.769531 209.207031 L 216.230469 209.207031 L 216.230469 266.671875 L 158.769531 266.671875 Z M 158.769531 209.207031 " clip-rule="nonzero"/></clipPath><clipPath id="f31a609dd5"><path d="M 187.5 209.207031 C 171.632812 209.207031 158.769531 222.070312 158.769531 237.9375 C 158.769531 253.808594 171.632812 266.671875 187.5 266.671875 C 203.367188 266.671875 216.230469 253.808594 216.230469 237.9375 C 216.230469 222.070312 203.367188 209.207031 187.5 209.207031 Z M 187.5 209.207031 " clip-rule="nonzero"/></clipPath></defs><g clip-path="url(#da41a6df3f)"><g clip-path="url(#58881ce794)"><g clip-path="url(#bb37a52156)"><path fill="#393939" d="M 335.914062 226.585938 L 222.421875 340.078125 C 203.167969 359.332031 171.832031 359.332031 152.578125 340.078125 L 39.085938 226.585938 C 19.832031 207.332031 19.832031 176 39.085938 156.746094 L 152.578125 43.253906 C 171.832031 24 203.167969 24 222.421875 43.253906 L 335.914062 156.746094 C 355.167969 176 355.167969 207.332031 335.914062 226.585938 Z M 335.914062 226.585938 " fill-opacity="1" fill-rule="nonzero"/></g></g></g><g clip-path="url(#62cb8227b8)"><g clip-path="url(#db729cf592)"><g clip-path="url(#ed16f89c6d)"><path fill="#393939" d="M 335.914062 218.253906 L 222.421875 331.746094 C 203.167969 351 171.832031 351 152.578125 331.746094 L 39.085938 218.253906 C 19.832031 199 19.832031 167.667969 39.085938 148.414062 L 152.578125 34.921875 C 171.832031 15.667969 203.167969 15.667969 222.421875 34.921875 L 335.914062 148.414062 C 355.167969 167.667969 355.167969 199 335.914062 218.253906 Z M 335.914062 218.253906 " fill-opacity="1" fill-rule="nonzero"/></g></g></g><g clip-path="url(#c07df551b7)"><g clip-path="url(#e33f3fa6bf)"><path fill="#a6880f" d="M 158.769531 104.75 L 216.230469 104.75 L 216.230469 162.214844 L 158.769531 162.214844 Z M 158.769531 104.75 " fill-opacity="1" fill-rule="nonzero"/></g></g><g clip-path="url(#62dc75c307)"><g clip-path="url(#662315ce68)"><path fill="#ffde59" d="M 158.769531 99.996094 L 216.230469 99.996094 L 216.230469 157.460938 L 158.769531 157.460938 Z M 158.769531 99.996094 " fill-opacity="1" fill-rule="nonzero"/></g></g><g clip-path="url(#2e3759bfd9)"><g clip-path="url(#f9487141aa)"><path fill="#273fab" d="M 101.304688 159.085938 L 158.769531 159.085938 L 158.769531 216.550781 L 101.304688 216.550781 Z M 101.304688 159.085938 " fill-opacity="1" fill-rule="nonzero"/></g></g><g clip-path="url(#4ad0c3446e)"><g clip-path="url(#08f6a34511)"><path fill="#5271ff" d="M 101.304688 154.601562 L 158.769531 154.601562 L 158.769531 212.066406 L 101.304688 212.066406 Z M 101.304688 154.601562 " fill-opacity="1" fill-rule="nonzero"/></g></g><g clip-path="url(#1ea1baf1e7)"><g clip-path="url(#750f9b64b7)"><path fill="#8d2525" d="M 216.230469 156.496094 L 273.695312 156.496094 L 273.695312 213.960938 L 216.230469 213.960938 Z M 216.230469 156.496094 " fill-opacity="1" fill-rule="nonzero"/></g></g><g clip-path="url(#5dbec571c4)"><g clip-path="url(#b8452859d5)"><path fill="#ff5757" d="M 216.230469 151.742188 L 273.695312 151.742188 L 273.695312 209.207031 L 216.230469 209.207031 Z M 216.230469 151.742188 " fill-opacity="1" fill-rule="nonzero"/></g></g><g clip-path="url(#8eea795322)"><g clip-path="url(#7e073be416)"><path fill="#48842f" d="M 158.769531 213.960938 L 216.230469 213.960938 L 216.230469 271.425781 L 158.769531 271.425781 Z M 158.769531 213.960938 " fill-opacity="1" fill-rule="nonzero"/></g></g><g clip-path="url(#03212891c1)"><g clip-path="url(#f31a609dd5)"><path fill="#7ed957" d="M 158.769531 209.207031 L 216.230469 209.207031 L 216.230469 266.671875 L 158.769531 266.671875 Z M 158.769531 209.207031 " fill-opacity="1" fill-rule="nonzero"/></g></g></svg>